{
	"asset":{
		"generator":"Khronos glTF Blender I/O v4.4.55",
		"version":"2.0"
	},
	"scene":0,
	"scenes":[
		{
			"name":"Scene",
			"nodes":[
				0,
				1,
				2,
				54
			]
		}
	],
	"nodes":[
		{
			"name":"CBS-Cross.003",
			"translation":[
				0.00011541694402694702,
				0,
				-1.7365440726280212e-05
			]
		},
		{
			"name":"CBS-Circle.003",
			"translation":[
				0.00011541694402694702,
				0,
				-1.7365440726280212e-05
			]
		},
		{
			"name":"CBS-Sphere.003",
			"translation":[
				0.00011541694402694702,
				0,
				-1.7365440726280212e-05
			]
		},
		{
			"name":"L.LegMiddle5",
			"rotation":[
				-0.30288299918174744,
				0.14475004374980927,
				-0.529541552066803,
				0.7790347337722778
			],
			"scale":[
				1,
				1.0000001192092896,
				1
			],
			"translation":[
				-9.328005035058595e-11,
				0.004552136640995741,
				-9.76797309704125e-10
			]
		},
		{
			"children":[
				3
			],
			"name":"L.LegMiddle4",
			"rotation":[
				-0.096608966588974,
				0.0064424313604831696,
				0.03791528940200806,
				0.9945791363716125
			],
			"scale":[
				0.9999998211860657,
				0.9999998807907104,
				0.9999999403953552
			],
			"translation":[
				-1.1641532182693481e-10,
				0.004913416225463152,
				-2.3283064365386963e-10
			]
		},
		{
			"children":[
				4
			],
			"name":"L.LegMiddle3",
			"rotation":[
				0.5046002864837646,
				-0.05733558535575867,
				0.7249106764793396,
				0.4653986394405365
			],
			"scale":[
				0.9999999403953552,
				1,
				0.9999998211860657
			],
			"translation":[
				-4.656612873077393e-10,
				0.004980731755495071,
				2.3283064365386963e-10
			]
		},
		{
			"children":[
				5
			],
			"name":"L.LegMiddle2",
			"rotation":[
				-0.11181634664535522,
				-2.9244313282106305e-07,
				-0.7897877097129822,
				0.6031023859977722
			],
			"scale":[
				1,
				0.9999999403953552,
				1
			],
			"translation":[
				4.729372449219227e-10,
				0.0013252058997750282,
				2.473825588822365e-10
			]
		},
		{
			"children":[
				6
			],
			"name":"L.LegMiddle1",
			"rotation":[
				0.5839322805404663,
				-0.209807887673378,
				0.5463897585868835,
				0.5625495910644531
			],
			"translation":[
				-0.0007420565816573799,
				0.001548830303363502,
				0.0019649136811494827
			]
		},
		{
			"name":"L.Nose",
			"rotation":[
				-0.13708268105983734,
				0.08056660741567612,
				0.4603729248046875,
				0.8733694553375244
			],
			"scale":[
				1,
				0.9999999403953552,
				1
			],
			"translation":[
				-0.0011997758410871029,
				0.005559307057410479,
				0.0007705031312070787
			]
		},
		{
			"name":"L.Feeler2",
			"rotation":[
				-0.17228913307189941,
				0.05326032638549805,
				-0.40298205614089966,
				0.8972654342651367
			],
			"scale":[
				1,
				1,
				1.0000001192092896
			],
			"translation":[
				-1.7462298274040222e-09,
				0.0031204642727971077,
				-9.313225746154785e-10
			]
		},
		{
			"children":[
				9
			],
			"name":"L.Feeler1",
			"rotation":[
				0.5651472806930542,
				0.7163351774215698,
				0.040857505053281784,
				0.40718939900398254
			],
			"scale":[
				0.9999999403953552,
				0.9999998211860657,
				1
			],
			"translation":[
				0.001115835621021688,
				0.00422500679269433,
				0.0010367899667471647
			]
		},
		{
			"name":"R.Nose",
			"rotation":[
				-0.4603728652000427,
				0.8733693957328796,
				0.13708266615867615,
				0.08056702464818954
			],
			"scale":[
				1,
				0.9999997615814209,
				1
			],
			"translation":[
				-0.0011997758410871029,
				0.005559307057410479,
				-0.0007705074385739863
			]
		},
		{
			"name":"R.Feeler2",
			"rotation":[
				-0.17228928208351135,
				-0.05326017737388611,
				0.40298187732696533,
				0.8972654938697815
			],
			"scale":[
				0.9999998807907104,
				0.9999997615814209,
				0.9999999403953552
			],
			"translation":[
				4.656612873077393e-10,
				0.003120468696579337,
				5.820766091346741e-10
			]
		},
		{
			"children":[
				12
			],
			"name":"R.Feeler1",
			"rotation":[
				-0.04085742309689522,
				0.40718939900398254,
				-0.5651472806930542,
				0.7163351774215698
			],
			"translation":[
				0.0011158346896991134,
				0.004225006327033043,
				-0.001036792411468923
			]
		},
		{
			"children":[
				8,
				10,
				11,
				13
			],
			"name":"Body3",
			"rotation":[
				-1.8812198021578297e-08,
				-7.482039166006871e-08,
				0.10726724565029144,
				0.9942302107810974
			],
			"translation":[
				-4.2327252813834093e-16,
				0.004323624540120363,
				2.7755575615628914e-16
			]
		},
		{
			"name":"L.LegFront5",
			"rotation":[
				-0.5740107893943787,
				-0.1678715944290161,
				0.013535893522202969,
				0.8013411164283752
			],
			"scale":[
				0.9999999403953552,
				0.9999997615814209,
				0.9999998807907104
			],
			"translation":[
				-1.1623342288658023e-09,
				0.004287872463464737,
				-8.021743269637227e-10
			]
		},
		{
			"children":[
				15
			],
			"name":"L.LegFront4",
			"rotation":[
				-0.044248316437006,
				-0.004765427205711603,
				-0.0032869691494852304,
				0.9990038275718689
			],
			"scale":[
				1,
				0.9999998807907104,
				0.9999999403953552
			],
			"translation":[
				1.4988472685217857e-09,
				0.004799582529813051,
				1.4551915228366852e-09
			]
		},
		{
			"children":[
				16
			],
			"name":"L.LegFront3",
			"rotation":[
				0.8317402005195618,
				0.037381306290626526,
				0.18515656888484955,
				0.5220420956611633
			],
			"scale":[
				0.9999999403953552,
				1,
				1
			],
			"translation":[
				0,
				0.004723736550658941,
				-4.656612873077393e-10
			]
		},
		{
			"children":[
				17
			],
			"name":"L.LegFront2",
			"rotation":[
				-0.8951227068901062,
				-0.046847060322761536,
				0.009257972240447998,
				0.4432550370693207
			],
			"scale":[
				1,
				1,
				1.0000003576278687
			],
			"translation":[
				1.0186340659856796e-09,
				0.0028440349269658327,
				-2.6921043172478676e-10
			]
		},
		{
			"children":[
				18
			],
			"name":"L.LegFront1",
			"rotation":[
				0.8063607215881348,
				-0.37470415234565735,
				0.3645278513431549,
				0.27658385038375854
			],
			"scale":[
				1,
				0.9999999403953552,
				1
			],
			"translation":[
				-0.0005351864965632558,
				0.0009716841741465032,
				0.0016606523422524333
			]
		},
		{
			"name":"R.LegFront5",
			"rotation":[
				-0.5740105509757996,
				0.16787174344062805,
				-0.013536054641008377,
				0.8013412356376648
			],
			"scale":[
				1,
				0.9999998807907104,
				1
			],
			"translation":[
				4.9112713895738125e-11,
				0.004287874326109886,
				-8.403731044381857e-10
			]
		},
		{
			"children":[
				20
			],
			"name":"R.LegFront4",
			"rotation":[
				-0.044248368591070175,
				0.0047654397785663605,
				0.003286940511316061,
				0.9990038275718689
			],
			"scale":[
				0.9999999403953552,
				0.9999999403953552,
				1
			],
			"translation":[
				5.529727786779404e-10,
				0.004799581598490477,
				3.4924596548080444e-10
			]
		},
		{
			"children":[
				21
			],
			"name":"R.LegFront3",
			"rotation":[
				0.8317399024963379,
				-0.03738109767436981,
				-0.1851566582918167,
				0.5220425128936768
			],
			"scale":[
				0.9999998211860657,
				0.9999998807907104,
				0.9999997019767761
			],
			"translation":[
				-8.149072527885437e-10,
				0.004723736550658941,
				8.149072527885437e-10
			]
		},
		{
			"children":[
				22
			],
			"name":"R.LegFront2",
			"rotation":[
				-0.8951226472854614,
				0.04684692621231079,
				-0.009257604368031025,
				0.44325515627861023
			],
			"scale":[
				0.9999999403953552,
				1,
				1.0000001192092896
			],
			"translation":[
				2.9103830456733704e-10,
				0.00284403283149004,
				7.34871719032526e-10
			]
		},
		{
			"children":[
				23
			],
			"name":"R.LegFront1",
			"rotation":[
				0.36452770233154297,
				-0.27658385038375854,
				0.8063608407974243,
				0.37470412254333496
			],
			"scale":[
				1.000000238418579,
				1,
				1
			],
			"translation":[
				-0.0005351851577870548,
				0.000971684989053756,
				-0.0016606553690508008
			]
		},
		{
			"children":[
				14,
				19,
				24
			],
			"name":"Body2",
			"rotation":[
				-5.631139288198028e-08,
				-1.525540795910274e-07,
				0.17300233244895935,
				0.984921395778656
			],
			"scale":[
				1.0000001192092896,
				1,
				1
			],
			"translation":[
				-8.149081964781146e-10,
				0.004197369795292616,
				2.220446049250313e-16
			]
		},
		{
			"name":"R.LegMiddle5",
			"rotation":[
				-0.3028833270072937,
				-0.14475056529045105,
				0.5295412540435791,
				0.7790346741676331
			],
			"scale":[
				1,
				0.9999999403953552,
				1
			],
			"translation":[
				9.547420631861314e-10,
				0.004552136640995741,
				4.6293280320242047e-10
			]
		},
		{
			"children":[
				26
			],
			"name":"R.LegMiddle4",
			"rotation":[
				-0.09660899639129639,
				-0.006442418787628412,
				-0.03791527822613716,
				0.9945791363716125
			],
			"scale":[
				1,
				1.0000001192092896,
				1.0000001192092896
			],
			"translation":[
				0,
				0.0049134125001728535,
				4.0745362639427185e-10
			]
		},
		{
			"children":[
				27
			],
			"name":"R.LegMiddle3",
			"rotation":[
				0.5046002268791199,
				0.057336222380399704,
				-0.7249106168746948,
				0.46539852023124695
			],
			"scale":[
				1,
				1,
				0.9999998807907104
			],
			"translation":[
				3.4924596548080444e-10,
				0.004980732686817646,
				-5.820766091346741e-11
			]
		},
		{
			"children":[
				28
			],
			"name":"R.LegMiddle2",
			"rotation":[
				-0.11181646585464478,
				-2.971600849832612e-07,
				0.7897873520851135,
				0.6031028628349304
			],
			"scale":[
				0.9999997615814209,
				0.9999999403953552,
				0.9999999403953552
			],
			"translation":[
				3.510649548843503e-10,
				0.0013252050848677754,
				1.4551915228366852e-10
			]
		},
		{
			"children":[
				29
			],
			"name":"R.LegMiddle1",
			"rotation":[
				0.5463891625404358,
				-0.562549889087677,
				0.5839327573776245,
				0.20980773866176605
			],
			"scale":[
				0.9999999403953552,
				0.9999998211860657,
				1
			],
			"translation":[
				-0.0007420554175041616,
				0.0015488301869481802,
				-0.001964916242286563
			]
		},
		{
			"children":[
				7,
				25,
				30
			],
			"name":"Body1",
			"rotation":[
				-0.2415759414434433,
				0.6601423621177673,
				-0.21083001792430878,
				0.6792671084403992
			],
			"scale":[
				0.9999998807907104,
				1,
				1
			],
			"translation":[
				3.759932099001162e-08,
				0.0014622299931943417,
				-2.313764525752049e-05
			]
		},
		{
			"name":"L.LegBack6",
			"rotation":[
				0.14148642122745514,
				0.15032356977462769,
				0.12128143757581711,
				0.9709146618843079
			],
			"scale":[
				1.0000001192092896,
				1,
				1
			],
			"translation":[
				1.4410943549592048e-09,
				0.0019831375684589148,
				3.9108272176235914e-10
			]
		},
		{
			"children":[
				32
			],
			"name":"L.LegBack5",
			"rotation":[
				0.43173694610595703,
				0.17354097962379456,
				0.09546353667974472,
				0.8799849152565002
			],
			"scale":[
				0.9999998807907104,
				0.9999999403953552,
				1
			],
			"translation":[
				-1.4679244486615062e-09,
				0.004349859431385994,
				1.8044374883174896e-09
			]
		},
		{
			"children":[
				33
			],
			"name":"L.LegBack4",
			"rotation":[
				-0.02359900251030922,
				-0.002191193401813507,
				0.009914628230035305,
				0.9996699690818787
			],
			"scale":[
				1,
				1.0000001192092896,
				0.9999999403953552
			],
			"translation":[
				1.5861587598919868e-09,
				0.006754839792847633,
				2.3283064365386963e-10
			]
		},
		{
			"children":[
				34
			],
			"name":"L.LegBack3",
			"rotation":[
				-0.8498215675354004,
				-0.09228884428739548,
				-0.27881863713264465,
				0.43765994906425476
			],
			"scale":[
				1.0000001192092896,
				1.000000238418579,
				1.0000001192092896
			],
			"translation":[
				-2.9103830456733704e-11,
				0.007269112393260002,
				4.656612873077393e-10
			]
		},
		{
			"children":[
				35
			],
			"name":"L.LegBack2",
			"rotation":[
				0.499313086271286,
				0.18637219071388245,
				0.6588595509529114,
				0.5309010744094849
			],
			"scale":[
				0.9999999403953552,
				1.0000001192092896,
				1
			],
			"translation":[
				1.0186340659856796e-10,
				0.0011505382135510445,
				3.4924596548080444e-10
			]
		},
		{
			"children":[
				36
			],
			"name":"L.LegBack1",
			"rotation":[
				0.6080463528633118,
				0.689355194568634,
				0.36139798164367676,
				0.15639936923980713
			],
			"scale":[
				0.9999999403953552,
				0.9999999403953552,
				0.9999999403953552
			],
			"translation":[
				0.001074017956852913,
				0.0014464865671470761,
				-0.0002901382395066321
			]
		},
		{
			"name":"Body4",
			"rotation":[
				0.998181164264679,
				0.024568570777773857,
				0.007211956661194563,
				0.054577723145484924
			],
			"scale":[
				0.9999985694885254,
				0.9999999403953552,
				0.9999924898147583
			],
			"translation":[
				2.4374458007514477e-10,
				-4.915818863082677e-10,
				8.290044206660241e-10
			]
		},
		{
			"name":"R.LegBack6",
			"rotation":[
				0.14148619771003723,
				-0.1503237783908844,
				-0.12128156423568726,
				0.9709146618843079
			],
			"scale":[
				0.9999999403953552,
				1,
				1
			],
			"translation":[
				2.1518644643947482e-09,
				0.001983136869966984,
				-6.266418495215476e-10
			]
		},
		{
			"children":[
				39
			],
			"name":"R.LegBack5",
			"rotation":[
				0.43173688650131226,
				-0.17354121804237366,
				-0.09546352177858353,
				0.8799849152565002
			],
			"scale":[
				0.9999998211860657,
				0.9999998807907104,
				0.9999998807907104
			],
			"translation":[
				9.640643838793039e-11,
				0.004349860828369856,
				4.511093720793724e-10
			]
		},
		{
			"children":[
				40
			],
			"name":"R.LegBack4",
			"rotation":[
				-0.02359894849359989,
				0.0021911882795393467,
				-0.009914721362292767,
				0.9996699690818787
			],
			"scale":[
				1.0000001192092896,
				1,
				0.9999999403953552
			],
			"translation":[
				6.184563972055912e-10,
				0.006754839327186346,
				-1.1641532182693481e-09
			]
		},
		{
			"children":[
				41
			],
			"name":"R.LegBack3",
			"rotation":[
				-0.8498215079307556,
				0.09228894114494324,
				0.27881869673728943,
				0.43765994906425476
			],
			"scale":[
				1,
				1,
				0.9999999403953552
			],
			"translation":[
				-1.0186340659856796e-09,
				0.0072691114619374275,
				-2.066371962428093e-09
			]
		},
		{
			"children":[
				42
			],
			"name":"R.LegBack2",
			"rotation":[
				0.49931299686431885,
				-0.18637220561504364,
				-0.6588597297668457,
				0.5309009552001953
			],
			"scale":[
				0.9999998211860657,
				0.9999998807907104,
				0.9999998807907104
			],
			"translation":[
				-4.656612873077393e-10,
				0.0011505373986437917,
				5.820766091346741e-10
			]
		},
		{
			"children":[
				43
			],
			"name":"R.LegBack1",
			"rotation":[
				0.6458331346511841,
				-0.6599807739257812,
				-0.34601205587387085,
				0.16613438725471497
			],
			"scale":[
				0.9999999403953552,
				0.9999997019767761,
				0.9999998807907104
			],
			"translation":[
				-0.0010605049319565296,
				0.0013399753952398896,
				-0.000315157842123881
			]
		},
		{
			"children":[
				31,
				37,
				38,
				44
			],
			"name":"Body0",
			"rotation":[
				0.4585346579551697,
				-0.5328159332275391,
				0.43649089336395264,
				0.5615415573120117
			],
			"scale":[
				1.0000001192092896,
				1.0000001192092896,
				1
			],
			"translation":[
				0.0055985236540436745,
				0.005338333547115326,
				-7.263429142767563e-05
			]
		},
		{
			"name":"L.LegBackIK",
			"rotation":[
				-0.04457618296146393,
				-0.4861002564430237,
				-0.6991428136825562,
				0.522416353225708
			],
			"scale":[
				0.9999999403953552,
				0.9999997615814209,
				0.9999998807907104
			],
			"translation":[
				0.011539923958480358,
				1.787068322300911e-05,
				0.00781261082738638
			]
		},
		{
			"name":"L.LegMiddleIK",
			"rotation":[
				0.5938500165939331,
				0.2799597680568695,
				0.3535310924053192,
				0.6663185954093933
			],
			"scale":[
				1,
				0.9999999403953552,
				1
			],
			"translation":[
				-0.00013213140482548624,
				1.859385520219803e-05,
				0.008143549785017967
			]
		},
		{
			"name":"L.LegFrontIK",
			"rotation":[
				0.6589770317077637,
				-0.4241909682750702,
				0.31353726983070374,
				0.5361955761909485
			],
			"translation":[
				-0.00441663758829236,
				0.00010749325156211853,
				0.005143618676811457
			]
		},
		{
			"name":"R.LegBackIK",
			"rotation":[
				-0.6991428136825562,
				-0.5224165320396423,
				-0.044576309621334076,
				0.4861000180244446
			],
			"scale":[
				0.9999998807907104,
				0.9999997615814209,
				0.9999998211860657
			],
			"translation":[
				0.011539923958480358,
				1.786882057785988e-05,
				-0.00781260896474123
			]
		},
		{
			"name":"R.LegMiddleIK",
			"rotation":[
				-0.3535311818122864,
				0.6663185954093933,
				-0.5938498973846436,
				0.2799597978591919
			],
			"scale":[
				1,
				1.000000238418579,
				0.9999999403953552
			],
			"translation":[
				-0.0001321317977271974,
				1.859152689576149e-05,
				-0.008143548853695393
			]
		},
		{
			"name":"R.LegFrontIK",
			"rotation":[
				0.31353703141212463,
				-0.5361956357955933,
				0.6589771509170532,
				0.424190878868103
			],
			"scale":[
				1,
				0.9999998807907104,
				0.9999999403953552
			],
			"translation":[
				-0.004416638053953648,
				0.00010749185457825661,
				-0.005143617745488882
			]
		},
		{
			"children":[
				45,
				46,
				47,
				48,
				49,
				50,
				51
			],
			"name":"Base",
			"rotation":[
				-4.2146844236867764e-08,
				0.7071067094802856,
				-4.2146844236867764e-08,
				0.7071068286895752
			]
		},
		{
			"mesh":0,
			"name":"Ant",
			"skin":0
		},
		{
			"children":[
				53,
				52
			],
			"name":"Ant (Rigged)"
		}
	],
	"materials":[
		{
			"doubleSided":true,
			"name":"Ant.005",
			"pbrMetallicRoughness":{
				"metallicFactor":0
			}
		}
	],
	"meshes":[
		{
			"name":"Cube.006",
			"primitives":[
				{
					"attributes":{
						"POSITION":0,
						"NORMAL":1,
						"TEXCOORD_0":2,
						"TEXCOORD_1":3,
						"TEXCOORD_2":4,
						"COLOR_0":5,
						"COLOR_1":6,
						"JOINTS_0":7,
						"WEIGHTS_0":8
					},
					"indices":9,
					"material":0
				}
			]
		}
	],
	"skins":[
		{
			"inverseBindMatrices":10,
			"joints":[
				52,
				45,
				31,
				7,
				6,
				5,
				4,
				3,
				25,
				14,
				8,
				10,
				9,
				11,
				13,
				12,
				19,
				18,
				17,
				16,
				15,
				24,
				23,
				22,
				21,
				20,
				30,
				29,
				28,
				27,
				26,
				37,
				36,
				35,
				34,
				33,
				32,
				38,
				44,
				43,
				42,
				41,
				40,
				39,
				46,
				47,
				48,
				49,
				50,
				51
			],
			"name":"Ant (Rigged)"
		}
	],
	"accessors":[
		{
			"bufferView":0,
			"componentType":5126,
			"count":2595,
			"max":[
				0.009204319678246975,
				0.01875491812825203,
				0.011486038565635681
			],
			"min":[
				-0.009204315952956676,
				-9.413983207195997e-05,
				-0.013900859281420708
			],
			"type":"VEC3"
		},
		{
			"bufferView":1,
			"componentType":5126,
			"count":2595,
			"type":"VEC3"
		},
		{
			"bufferView":2,
			"componentType":5126,
			"count":2595,
			"type":"VEC2"
		},
		{
			"bufferView":3,
			"componentType":5126,
			"count":2595,
			"type":"VEC2"
		},
		{
			"bufferView":4,
			"componentType":5126,
			"count":2595,
			"type":"VEC2"
		},
		{
			"bufferView":5,
			"componentType":5121,
			"count":2595,
			"normalized":true,
			"type":"VEC4"
		},
		{
			"bufferView":6,
			"componentType":5123,
			"count":2595,
			"normalized":true,
			"type":"VEC4"
		},
		{
			"bufferView":7,
			"componentType":5121,
			"count":2595,
			"type":"VEC4"
		},
		{
			"bufferView":8,
			"componentType":5126,
			"count":2595,
			"type":"VEC4"
		},
		{
			"bufferView":9,
			"componentType":5123,
			"count":6156,
			"type":"SCALAR"
		},
		{
			"bufferView":10,
			"componentType":5126,
			"count":50,
			"type":"MAT4"
		}
	],
	"bufferViews":[
		{
			"buffer":0,
			"byteLength":31140,
			"byteOffset":0,
			"target":34962
		},
		{
			"buffer":0,
			"byteLength":31140,
			"byteOffset":31140,
			"target":34962
		},
		{
			"buffer":0,
			"byteLength":20760,
			"byteOffset":62280,
			"target":34962
		},
		{
			"buffer":0,
			"byteLength":20760,
			"byteOffset":83040,
			"target":34962
		},
		{
			"buffer":0,
			"byteLength":20760,
			"byteOffset":103800,
			"target":34962
		},
		{
			"buffer":0,
			"byteLength":10380,
			"byteOffset":124560,
			"target":34962
		},
		{
			"buffer":0,
			"byteLength":20760,
			"byteOffset":134940,
			"target":34962
		},
		{
			"buffer":0,
			"byteLength":10380,
			"byteOffset":155700,
			"target":34962
		},
		{
			"buffer":0,
			"byteLength":41520,
			"byteOffset":166080,
			"target":34962
		},
		{
			"buffer":0,
			"byteLength":12312,
			"byteOffset":207600,
			"target":34963
		},
		{
			"buffer":0,
			"byteLength":3200,
			"byteOffset":219912
		}
	],
	"buffers":[
		{
			"byteLength":223112,
			"uri":"formica.bin"
		}
	]
}
