{
	"asset":{
		"generator":"Khronos glTF Blender I/O v4.2.57",
		"version":"2.0"
	},
	"scene":0,
	"scenes":[
		{
			"name":"Scene",
			"nodes":[
				51,
				52,
				53,
				54
			]
		}
	],
	"nodes":[
		{
			"name":"L.LegMiddle5",
			"rotation":[
				-0.30288320779800415,
				0.14475011825561523,
				-0.5295413732528687,
				0.7790347337722778
			],
			"scale":[
				0.9999998807907104,
				0.9999998807907104,
				0.9999999403953552
			],
			"translation":[
				-8.869847079040483e-10,
				0.004552139900624752,
				1.5188561519607902e-10
			]
		},
		{
			"children":[
				0
			],
			"name":"L.LegMiddle4",
			"rotation":[
				-0.09660894423723221,
				0.006442377343773842,
				0.03791526332497597,
				0.9945791363716125
			],
			"scale":[
				0.9999999403953552,
				1.0000001192092896,
				0.9999999403953552
			],
			"translation":[
				-1.1641532182693481e-10,
				0.004913419485092163,
				-5.820766091346741e-10
			]
		},
		{
			"children":[
				1
			],
			"name":"L.LegMiddle3",
			"rotation":[
				0.5046002864837646,
				-0.057335760444402695,
				0.7249106764793396,
				0.46539855003356934
			],
			"scale":[
				1.0000001192092896,
				1.0000001192092896,
				1.0000001192092896
			],
			"translation":[
				-6.984919309616089e-10,
				0.0049807350151240826,
				1.7462298274040222e-10
			]
		},
		{
			"children":[
				2
			],
			"name":"L.LegMiddle2",
			"rotation":[
				-0.1118164137005806,
				-1.6980570194391476e-07,
				-0.7897876501083374,
				0.603102445602417
			],
			"scale":[
				0.9999998807907104,
				1,
				0.9999999403953552
			],
			"translation":[
				-5.3660187404602766e-11,
				0.0013252077624201775,
				-2.9103830456733704e-11
			]
		},
		{
			"children":[
				3
			],
			"name":"L.LegMiddle1",
			"rotation":[
				0.5839323997497559,
				-0.20980775356292725,
				0.546389639377594,
				0.5625495910644531
			],
			"scale":[
				1.0000001192092896,
				1.0000001192092896,
				1.0000001192092896
			],
			"translation":[
				-0.0007420568144880235,
				0.0015488307690247893,
				0.0019649150781333447
			]
		},
		{
			"name":"L.Nose",
			"rotation":[
				-0.13708268105983734,
				0.08056669682264328,
				0.46037304401397705,
				0.8733693957328796
			],
			"scale":[
				1,
				0.9999998807907104,
				1
			],
			"translation":[
				-0.0011997761903330684,
				0.005559308920055628,
				0.0007705036550760269
			]
		},
		{
			"name":"L.Feeler2",
			"rotation":[
				-0.172289177775383,
				0.05326034128665924,
				-0.40298211574554443,
				0.8972653746604919
			],
			"translation":[
				0,
				0.0031204703263938427,
				-5.820766091346741e-10
			]
		},
		{
			"children":[
				6
			],
			"name":"L.Feeler1",
			"rotation":[
				0.5651471614837646,
				0.7163352370262146,
				0.04085749015212059,
				0.40718936920166016
			],
			"scale":[
				0.9999999403953552,
				1,
				1
			],
			"translation":[
				0.0011158348061144352,
				0.004225008189678192,
				0.0010367899667471647
			]
		},
		{
			"name":"R.Nose",
			"rotation":[
				-0.4603728950023651,
				0.8733694553375244,
				0.13708263635635376,
				0.08056681603193283
			],
			"scale":[
				1,
				1.0000003576278687,
				1
			],
			"translation":[
				-0.0011997759575024247,
				0.005559308920055628,
				-0.0007705071475356817
			]
		},
		{
			"name":"R.Feeler2",
			"rotation":[
				-0.1722891926765442,
				-0.05326021462678909,
				0.40298205614089966,
				0.8972654342651367
			],
			"scale":[
				1.0000001192092896,
				1,
				0.9999999403953552
			],
			"translation":[
				-2.3283064365386963e-10,
				0.0031204698607325554,
				-4.656612873077393e-10
			]
		},
		{
			"children":[
				9
			],
			"name":"R.Feeler1",
			"rotation":[
				-0.040857575833797455,
				0.40718936920166016,
				-0.5651472210884094,
				0.7163352370262146
			],
			"scale":[
				1.0000001192092896,
				1.0000001192092896,
				1
			],
			"translation":[
				0.0011158350389450788,
				0.004225007724016905,
				-0.0010367932263761759
			]
		},
		{
			"children":[
				5,
				7,
				8,
				10
			],
			"name":"Body3",
			"rotation":[
				-1.974454022501959e-08,
				-1.9926970296069157e-08,
				0.10726732760667801,
				0.9942302107810974
			],
			"scale":[
				0.9999999403953552,
				1.0000001192092896,
				1
			],
			"translation":[
				6.98491708917004e-10,
				0.004323625937104225,
				0
			]
		},
		{
			"name":"L.LegFront5",
			"rotation":[
				-0.5740106105804443,
				-0.16787154972553253,
				0.013535873964428902,
				0.8013412356376648
			],
			"translation":[
				-5.034053174313158e-10,
				0.004287875723093748,
				-5.275069270282984e-10
			]
		},
		{
			"children":[
				12
			],
			"name":"L.LegFront4",
			"rotation":[
				-0.04424835741519928,
				-0.004765411838889122,
				-0.00328692514449358,
				0.9990038275718689
			],
			"scale":[
				1,
				0.9999999403953552,
				1
			],
			"translation":[
				8.294591680169106e-10,
				0.004799584858119488,
				3.4924596548080444e-10
			]
		},
		{
			"children":[
				13
			],
			"name":"L.LegFront3",
			"rotation":[
				0.8317400813102722,
				0.03738128021359444,
				0.18515653908252716,
				0.5220423340797424
			],
			"scale":[
				1,
				0.9999998211860657,
				1
			],
			"translation":[
				2.3283064365386963e-10,
				0.004723738878965378,
				-4.656612873077393e-10
			]
		},
		{
			"children":[
				14
			],
			"name":"L.LegFront2",
			"rotation":[
				-0.8951227068901062,
				-0.04684710130095482,
				0.009257862344384193,
				0.44325509667396545
			],
			"scale":[
				1,
				1.0000001192092896,
				0.9999998807907104
			],
			"translation":[
				3.4924596548080444e-10,
				0.0028440349269658327,
				-1.3096723705530167e-10
			]
		},
		{
			"children":[
				15
			],
			"name":"L.LegFront1",
			"rotation":[
				0.8063608407974243,
				-0.3747040331363678,
				0.3645278215408325,
				0.27658385038375854
			],
			"scale":[
				0.9999997615814209,
				0.9999998211860657,
				0.9999998807907104
			],
			"translation":[
				-0.0005351852159947157,
				0.0009716852800920606,
				0.0016606536228209734
			]
		},
		{
			"name":"R.LegFront5",
			"rotation":[
				-0.5740106701850891,
				0.16787153482437134,
				-0.01353578083217144,
				0.8013412356376648
			],
			"translation":[
				-1.468833943363279e-10,
				0.004287876188755035,
				-1.5279510989785194e-10
			]
		},
		{
			"children":[
				17
			],
			"name":"R.LegFront4",
			"rotation":[
				-0.04424833878874779,
				0.004765371326357126,
				0.003286913735792041,
				0.9990037679672241
			],
			"translation":[
				-1.4551915228366852e-11,
				0.004799583926796913,
				5.820766091346741e-11
			]
		},
		{
			"children":[
				18
			],
			"name":"R.LegFront3",
			"rotation":[
				0.8317400217056274,
				-0.0373811274766922,
				-0.18515674769878387,
				0.5220423340797424
			],
			"scale":[
				0.9999999403953552,
				1,
				1
			],
			"translation":[
				0,
				0.0047237384133040905,
				2.3283064365386963e-10
			]
		},
		{
			"children":[
				19
			],
			"name":"R.LegFront2",
			"rotation":[
				-0.8951227068901062,
				0.04684695228934288,
				-0.00925762765109539,
				0.4432550370693207
			],
			"scale":[
				1.0000001192092896,
				1.0000001192092896,
				1
			],
			"translation":[
				3.4924596548080444e-10,
				0.0028440351597964764,
				1.0913936421275139e-10
			]
		},
		{
			"children":[
				20
			],
			"name":"R.LegFront1",
			"rotation":[
				0.36452779173851013,
				-0.2765837609767914,
				0.8063608407974243,
				0.3747040629386902
			],
			"scale":[
				1,
				0.9999999403953552,
				0.9999999403953552
			],
			"translation":[
				-0.0005351848085410893,
				0.000971684989053756,
				-0.00166065595112741
			]
		},
		{
			"children":[
				11,
				16,
				21
			],
			"name":"Body2",
			"rotation":[
				-3.7422658749619586e-08,
				-1.275769250241865e-07,
				0.17300225794315338,
				0.9849214553833008
			],
			"scale":[
				1.0000001192092896,
				1,
				1
			],
			"translation":[
				-2.328310877430795e-10,
				0.004197369795292616,
				-5.551115123125783e-17
			]
		},
		{
			"name":"R.LegMiddle5",
			"rotation":[
				-0.3028832674026489,
				-0.14475023746490479,
				0.5295414924621582,
				0.7790346145629883
			],
			"scale":[
				1,
				0.9999999403953552,
				0.9999999403953552
			],
			"translation":[
				-1.2852297004428692e-10,
				0.004552139434963465,
				-6.093614501878619e-10
			]
		},
		{
			"children":[
				23
			],
			"name":"R.LegMiddle4",
			"rotation":[
				-0.0966089516878128,
				-0.006442462559789419,
				-0.03791531175374985,
				0.9945791363716125
			],
			"scale":[
				0.9999998211860657,
				0.9999998211860657,
				0.9999998807907104
			],
			"translation":[
				-2.6193447411060333e-10,
				0.004913416691124439,
				2.3283064365386963e-10
			]
		},
		{
			"children":[
				24
			],
			"name":"R.LegMiddle3",
			"rotation":[
				0.5046002268791199,
				0.05733586102724075,
				-0.7249106168746948,
				0.4653985798358917
			],
			"scale":[
				0.9999999403953552,
				1,
				0.9999999403953552
			],
			"translation":[
				-2.3283064365386963e-10,
				0.00498073548078537,
				-4.656612873077393e-10
			]
		},
		{
			"children":[
				25
			],
			"name":"R.LegMiddle2",
			"rotation":[
				-0.11181633919477463,
				7.546921665380069e-08,
				0.7897875308990479,
				0.6031026840209961
			],
			"scale":[
				0.9999998807907104,
				0.9999998807907104,
				0.9999998807907104
			],
			"translation":[
				-4.18367562815547e-11,
				0.0013252063654363155,
				-3.055902197957039e-10
			]
		},
		{
			"children":[
				26
			],
			"name":"R.LegMiddle1",
			"rotation":[
				0.5463891625404358,
				-0.5625496506690979,
				0.5839327573776245,
				0.20980755984783173
			],
			"scale":[
				1,
				1.000000238418579,
				1.0000001192092896
			],
			"translation":[
				-0.0007420551846735179,
				0.0015488299541175365,
				-0.0019649164751172066
			]
		},
		{
			"children":[
				4,
				22,
				27
			],
			"name":"Body1",
			"rotation":[
				-0.24157606065273285,
				0.6601426601409912,
				-0.21082991361618042,
				0.6792668700218201
			],
			"scale":[
				1,
				1.000000238418579,
				1.0000001192092896
			],
			"translation":[
				3.7388545592875744e-08,
				0.0014622302260249853,
				-2.313788718311116e-05
			]
		},
		{
			"name":"L.LegBack6",
			"rotation":[
				0.14148637652397156,
				0.1503235399723053,
				0.12128151953220367,
				0.9709146618843079
			],
			"translation":[
				6.384652806445956e-10,
				0.001983137335628271,
				9.913492249324918e-11
			]
		},
		{
			"children":[
				29
			],
			"name":"L.LegBack5",
			"rotation":[
				0.43173694610595703,
				0.17354097962379456,
				0.09546352177858353,
				0.8799849152565002
			],
			"scale":[
				1,
				1,
				0.9999999403953552
			],
			"translation":[
				-6.330083124339581e-10,
				0.004349861294031143,
				3.346940502524376e-10
			]
		},
		{
			"children":[
				30
			],
			"name":"L.LegBack4",
			"rotation":[
				-0.023599058389663696,
				-0.002191142411902547,
				0.00991471204906702,
				0.9996699690818787
			],
			"scale":[
				1,
				0.9999999403953552,
				0.9999999403953552
			],
			"translation":[
				-6.548361852765083e-11,
				0.006754841655492783,
				5.820766091346741e-10
			]
		},
		{
			"children":[
				31
			],
			"name":"L.LegBack3",
			"rotation":[
				-0.8498215675354004,
				-0.09228892624378204,
				-0.27881863713264465,
				0.43766000866889954
			],
			"scale":[
				1,
				0.9999999403953552,
				1.000000238418579
			],
			"translation":[
				2.6193447411060333e-10,
				0.007269114721566439,
				-5.820766091346741e-11
			]
		},
		{
			"children":[
				32
			],
			"name":"L.LegBack2",
			"rotation":[
				0.4993131160736084,
				0.18637214601039886,
				0.6588595509529114,
				0.5309010744094849
			],
			"scale":[
				1,
				0.9999998807907104,
				0.9999999403953552
			],
			"translation":[
				-7.275957614183426e-11,
				0.0011505396105349064,
				4.656612873077393e-10
			]
		},
		{
			"children":[
				33
			],
			"name":"L.LegBack1",
			"rotation":[
				0.6080464720726013,
				0.6893551349639893,
				0.36139780282974243,
				0.15639914572238922
			],
			"scale":[
				1,
				0.9999998807907104,
				0.9999999403953552
			],
			"translation":[
				0.0010740177240222692,
				0.0014464863343164325,
				-0.0002901389088947326
			]
		},
		{
			"name":"Body4",
			"rotation":[
				0.9981812238693237,
				0.02456849068403244,
				0.007209902163594961,
				0.05457751452922821
			],
			"scale":[
				0.9999983906745911,
				0.9999998807907104,
				0.9999913573265076
			],
			"translation":[
				9.094947017729282e-12,
				-9.640643838793039e-11,
				2.915498953370843e-10
			]
		},
		{
			"name":"R.LegBack6",
			"rotation":[
				0.141486257314682,
				-0.15032368898391724,
				-0.12128151953220367,
				0.9709146618843079
			],
			"scale":[
				0.9999999403953552,
				1,
				1
			],
			"translation":[
				8.017195796128362e-10,
				0.001983136869966984,
				-1.227817847393453e-10
			]
		},
		{
			"children":[
				36
			],
			"name":"R.LegBack5",
			"rotation":[
				0.43173712491989136,
				-0.1735411435365677,
				-0.09546356648206711,
				0.8799847960472107
			],
			"scale":[
				1,
				0.9999999403953552,
				1
			],
			"translation":[
				3.2014213502407074e-10,
				0.004349861294031143,
				-2.0372681319713593e-10
			]
		},
		{
			"children":[
				37
			],
			"name":"R.LegBack4",
			"rotation":[
				-0.023599037900567055,
				0.0021911885123699903,
				-0.00991468969732523,
				0.9996699690818787
			],
			"scale":[
				1,
				1,
				0.9999999403953552
			],
			"translation":[
				-6.548361852765083e-11,
				0.006754840724170208,
				-5.820766091346741e-10
			]
		},
		{
			"children":[
				38
			],
			"name":"R.LegBack3",
			"rotation":[
				-0.8498215675354004,
				0.09228891879320145,
				0.2788185775279999,
				0.43765994906425476
			],
			"scale":[
				1.0000001192092896,
				1.0000001192092896,
				1.0000001192092896
			],
			"translation":[
				-1.1641532182693481e-10,
				0.007269115187227726,
				-5.820766091346741e-10
			]
		},
		{
			"children":[
				39
			],
			"name":"R.LegBack2",
			"rotation":[
				0.4993131756782532,
				-0.18637216091156006,
				-0.6588595509529114,
				0.5309010148048401
			],
			"scale":[
				1,
				1,
				0.9999999403953552
			],
			"translation":[
				3.055902197957039e-10,
				0.0011505389120429754,
				-5.820766091346741e-11
			]
		},
		{
			"children":[
				40
			],
			"name":"R.LegBack1",
			"rotation":[
				0.6458331346511841,
				-0.6599805951118469,
				-0.34601229429244995,
				0.16613471508026123
			],
			"scale":[
				1,
				0.9999999403953552,
				1
			],
			"translation":[
				-0.0010605056304484606,
				0.001339975162409246,
				-0.00031515772570855916
			]
		},
		{
			"children":[
				28,
				34,
				35,
				41
			],
			"name":"Body0",
			"rotation":[
				0.45853477716445923,
				-0.5328161120414734,
				0.4364907145500183,
				0.5615413784980774
			],
			"scale":[
				0.9999998211860657,
				0.9999997019767761,
				0.9999998807907104
			],
			"translation":[
				0.005598524585366249,
				0.005338333081454039,
				-7.263439329108223e-05
			]
		},
		{
			"name":"L.LegBackIK",
			"rotation":[
				-0.04457627236843109,
				-0.4861001968383789,
				-0.6991429328918457,
				0.5224162936210632
			],
			"scale":[
				1.0000001192092896,
				1.0000001192092896,
				1
			],
			"translation":[
				0.011539924889802933,
				1.7868587747216225e-05,
				0.00781261082738638
			]
		},
		{
			"name":"L.LegMiddleIK",
			"rotation":[
				0.5938500761985779,
				0.2799597382545471,
				0.35353121161460876,
				0.6663185358047485
			],
			"scale":[
				1,
				1,
				1.0000001192092896
			],
			"translation":[
				-0.00013213188503868878,
				1.8592458218336105e-05,
				0.008143549785017967
			]
		},
		{
			"name":"L.LegFrontIK",
			"rotation":[
				0.6589769721031189,
				-0.42419102787971497,
				0.3135372996330261,
				0.536195695400238
			],
			"translation":[
				-0.004416638519614935,
				0.00010749302600743249,
				0.005143618676811457
			]
		},
		{
			"name":"R.LegBackIK",
			"rotation":[
				-0.6991429328918457,
				-0.5224162936210632,
				-0.04457633197307587,
				0.4861001968383789
			],
			"scale":[
				1,
				1.0000001192092896,
				1
			],
			"translation":[
				0.011539924889802933,
				1.7868587747216225e-05,
				-0.00781260896474123
			]
		},
		{
			"name":"R.LegMiddleIK",
			"rotation":[
				-0.3535311818122864,
				0.6663185358047485,
				-0.5938500165939331,
				0.2799597680568695
			],
			"scale":[
				1.0000001192092896,
				1.0000001192092896,
				1
			],
			"translation":[
				-0.00013213118654675782,
				1.8592458218336105e-05,
				-0.008143549785017967
			]
		},
		{
			"name":"R.LegFrontIK",
			"rotation":[
				0.3135371208190918,
				-0.536195695400238,
				0.6589770913124084,
				0.42419081926345825
			],
			"scale":[
				1,
				1,
				1.0000001192092896
			],
			"translation":[
				-0.004416638519614935,
				0.00010749302600743249,
				-0.005143618676811457
			]
		},
		{
			"children":[
				42,
				43,
				44,
				45,
				46,
				47,
				48
			],
			"name":"Base",
			"rotation":[
				0,
				0.7071067690849304,
				0,
				0.7071067690849304
			],
			"scale":[
				1,
				0.9999999403953552,
				1
			]
		},
		{
			"mesh":0,
			"name":"Ant",
			"skin":0
		},
		{
			"children":[
				50,
				49
			],
			"name":"Ant (Rigged)"
		},
		{
			"name":"CBS-Cross",
			"translation":[
				-0.000803050585091114,
				0,
				0.004092991352081299
			]
		},
		{
			"name":"CBS-Circle",
			"translation":[
				-0.000803050585091114,
				0,
				0.004092991352081299
			]
		},
		{
			"name":"CBS-Sphere",
			"translation":[
				-0.000803050585091114,
				0,
				0.004092991352081299
			]
		}
	],
	"materials":[
		{
			"doubleSided":true,
			"name":"Ant.004",
			"pbrMetallicRoughness":{
				"baseColorTexture":{
					"index":0
				},
				"metallicFactor":0
			}
		},
		{
			"doubleSided":true,
			"name":"Eye.004",
			"pbrMetallicRoughness":{
				"metallicFactor":0
			}
		}
	],
	"meshes":[
		{
			"name":"Cube.005",
			"primitives":[
				{
					"attributes":{
						"POSITION":0,
						"NORMAL":1,
						"TEXCOORD_0":2,
						"TEXCOORD_1":3,
						"TEXCOORD_2":4,
						"JOINTS_0":5,
						"WEIGHTS_0":6
					},
					"indices":7,
					"material":0
				},
				{
					"attributes":{
						"POSITION":8,
						"NORMAL":9,
						"TEXCOORD_0":10,
						"TEXCOORD_1":11,
						"TEXCOORD_2":12,
						"JOINTS_0":13,
						"WEIGHTS_0":14
					},
					"indices":15,
					"material":1
				}
			]
		}
	],
	"textures":[
		{
			"sampler":0,
			"source":0
		}
	],
	"images":[
		{
			"mimeType":"image/jpeg",
			"name":"Mask",
			"uri":"textures/Mask.jpg"
		}
	],
	"skins":[
		{
			"inverseBindMatrices":16,
			"joints":[
				49,
				42,
				28,
				4,
				3,
				2,
				1,
				0,
				22,
				11,
				5,
				7,
				6,
				8,
				10,
				9,
				16,
				15,
				14,
				13,
				12,
				21,
				20,
				19,
				18,
				17,
				27,
				26,
				25,
				24,
				23,
				34,
				33,
				32,
				31,
				30,
				29,
				35,
				41,
				40,
				39,
				38,
				37,
				36,
				43,
				44,
				45,
				46,
				47,
				48
			],
			"name":"Ant (Rigged)"
		}
	],
	"accessors":[
		{
			"bufferView":0,
			"componentType":5126,
			"count":2582,
			"max":[
				0.0092043187469244,
				0.01875491254031658,
				0.011486038565635681
			],
			"min":[
				-0.0092043187469244,
				-9.413684165338054e-05,
				-0.014000339433550835
			],
			"type":"VEC3"
		},
		{
			"bufferView":1,
			"componentType":5126,
			"count":2582,
			"type":"VEC3"
		},
		{
			"bufferView":2,
			"componentType":5126,
			"count":2582,
			"type":"VEC2"
		},
		{
			"bufferView":3,
			"componentType":5126,
			"count":2582,
			"type":"VEC2"
		},
		{
			"bufferView":4,
			"componentType":5126,
			"count":2582,
			"type":"VEC2"
		},
		{
			"bufferView":5,
			"componentType":5121,
			"count":2582,
			"type":"VEC4"
		},
		{
			"bufferView":6,
			"componentType":5126,
			"count":2582,
			"type":"VEC4"
		},
		{
			"bufferView":7,
			"componentType":5123,
			"count":6114,
			"type":"SCALAR"
		},
		{
			"bufferView":8,
			"componentType":5126,
			"count":471,
			"max":[
				0.0019105016253888607,
				0.013004163280129433,
				0.0051277875900268555
			],
			"min":[
				-0.0019105016253888607,
				0.012266121804714203,
				0.0034106364473700523
			],
			"type":"VEC3"
		},
		{
			"bufferView":9,
			"componentType":5126,
			"count":471,
			"type":"VEC3"
		},
		{
			"bufferView":10,
			"componentType":5126,
			"count":471,
			"type":"VEC2"
		},
		{
			"bufferView":11,
			"componentType":5126,
			"count":471,
			"type":"VEC2"
		},
		{
			"bufferView":12,
			"componentType":5126,
			"count":471,
			"type":"VEC2"
		},
		{
			"bufferView":13,
			"componentType":5121,
			"count":471,
			"type":"VEC4"
		},
		{
			"bufferView":14,
			"componentType":5126,
			"count":471,
			"type":"VEC4"
		},
		{
			"bufferView":15,
			"componentType":5123,
			"count":1920,
			"type":"SCALAR"
		},
		{
			"bufferView":16,
			"componentType":5126,
			"count":50,
			"type":"MAT4"
		}
	],
	"bufferViews":[
		{
			"buffer":0,
			"byteLength":30984,
			"byteOffset":0,
			"target":34962
		},
		{
			"buffer":0,
			"byteLength":30984,
			"byteOffset":30984,
			"target":34962
		},
		{
			"buffer":0,
			"byteLength":20656,
			"byteOffset":61968,
			"target":34962
		},
		{
			"buffer":0,
			"byteLength":20656,
			"byteOffset":82624,
			"target":34962
		},
		{
			"buffer":0,
			"byteLength":20656,
			"byteOffset":103280,
			"target":34962
		},
		{
			"buffer":0,
			"byteLength":10328,
			"byteOffset":123936,
			"target":34962
		},
		{
			"buffer":0,
			"byteLength":41312,
			"byteOffset":134264,
			"target":34962
		},
		{
			"buffer":0,
			"byteLength":12228,
			"byteOffset":175576,
			"target":34963
		},
		{
			"buffer":0,
			"byteLength":5652,
			"byteOffset":187804,
			"target":34962
		},
		{
			"buffer":0,
			"byteLength":5652,
			"byteOffset":193456,
			"target":34962
		},
		{
			"buffer":0,
			"byteLength":3768,
			"byteOffset":199108,
			"target":34962
		},
		{
			"buffer":0,
			"byteLength":3768,
			"byteOffset":202876,
			"target":34962
		},
		{
			"buffer":0,
			"byteLength":3768,
			"byteOffset":206644,
			"target":34962
		},
		{
			"buffer":0,
			"byteLength":1884,
			"byteOffset":210412,
			"target":34962
		},
		{
			"buffer":0,
			"byteLength":7536,
			"byteOffset":212296,
			"target":34962
		},
		{
			"buffer":0,
			"byteLength":3840,
			"byteOffset":219832,
			"target":34963
		},
		{
			"buffer":0,
			"byteLength":3200,
			"byteOffset":223672
		}
	],
	"samplers":[
		{
			"magFilter":9729,
			"minFilter":9987
		}
	],
	"buffers":[
		{
			"byteLength":226872,
			"uri":"antBabylonReady%2Btextures.bin"
		}
	]
}
